<?xml version="1.0" encoding="utf-8"?>
<!-- Generator: Adobe Illustrator 18.1.1, SVG Export Plug-In . SVG Version: 6.00 Build 0)  -->
<!DOCTYPE svg PUBLIC "-//W3C//DTD SVG 1.1//EN" "http://www.w3.org/Graphics/SVG/1.1/DTD/svg11.dtd">
<svg version="1.1" xmlns="http://www.w3.org/2000/svg" xmlns:xlink="http://www.w3.org/1999/xlink" x="0px" y="0px"
	 viewBox="-1947 997 2048 256" enable-background="new -1947 997 2048 256" xml:space="preserve">
<g id="Layer_1">
	<rect x="-1937" y="1002" shape-rendering="optimizeSpeed" fill="#FFFFFF" width="244" height="244"/>
	<rect x="-1922.4" y="1016.6" shape-rendering="optimizeSpeed" width="8.5" height="8.5"/>
	<rect x="-1913.8" y="1016.6" shape-rendering="optimizeSpeed" width="8.5" height="8.5"/>
	<rect x="-1905.3" y="1016.6" shape-rendering="optimizeSpeed" width="8.5" height="8.5"/>
	<rect x="-1896.7" y="1016.6" shape-rendering="optimizeSpeed" width="8.5" height="8.5"/>
	<rect x="-1888.2" y="1016.6" shape-rendering="optimizeSpeed" width="8.5" height="8.5"/>
	<rect x="-1879.7" y="1016.6" shape-rendering="optimizeSpeed" width="8.5" height="8.5"/>
	<rect x="-1871.1" y="1016.6" shape-rendering="optimizeSpeed" width="8.5" height="8.5"/>
	<rect x="-1854.1" y="1016.6" shape-rendering="optimizeSpeed" width="8.5" height="8.5"/>
	<rect x="-1845.5" y="1016.6" shape-rendering="optimizeSpeed" width="8.5" height="8.5"/>
	<rect x="-1837" y="1016.6" shape-rendering="optimizeSpeed" width="8.5" height="8.5"/>
	<rect x="-1819.9" y="1016.6" shape-rendering="optimizeSpeed" width="8.5" height="8.5"/>
	<rect x="-1802.8" y="1016.6" shape-rendering="optimizeSpeed" width="8.5" height="8.5"/>
	<rect x="-1794.3" y="1016.6" shape-rendering="optimizeSpeed" width="8.5" height="8.5"/>
	<rect x="-1785.7" y="1016.6" shape-rendering="optimizeSpeed" width="8.5" height="8.5"/>
	<rect x="-1768.7" y="1016.6" shape-rendering="optimizeSpeed" width="8.5" height="8.5"/>
	<rect x="-1760.1" y="1016.6" shape-rendering="optimizeSpeed" width="8.5" height="8.5"/>
	<rect x="-1751.6" y="1016.6" shape-rendering="optimizeSpeed" width="8.5" height="8.5"/>
	<rect x="-1743.1" y="1016.6" shape-rendering="optimizeSpeed" width="8.5" height="8.5"/>
	<rect x="-1734.5" y="1016.6" shape-rendering="optimizeSpeed" width="8.5" height="8.5"/>
	<rect x="-1726" y="1016.6" shape-rendering="optimizeSpeed" width="8.5" height="8.5"/>
	<rect x="-1717.4" y="1016.6" shape-rendering="optimizeSpeed" width="8.5" height="8.5"/>
	<rect x="-1922.4" y="1025.2" shape-rendering="optimizeSpeed" width="8.5" height="8.5"/>
	<rect x="-1871.1" y="1025.2" shape-rendering="optimizeSpeed" width="8.5" height="8.5"/>
	<rect x="-1854.1" y="1025.2" shape-rendering="optimizeSpeed" width="8.5" height="8.5"/>
	<rect x="-1845.5" y="1025.2" shape-rendering="optimizeSpeed" width="8.5" height="8.5"/>
	<rect x="-1837" y="1025.2" shape-rendering="optimizeSpeed" width="8.5" height="8.5"/>
	<rect x="-1802.8" y="1025.2" shape-rendering="optimizeSpeed" width="8.5" height="8.5"/>
	<rect x="-1785.7" y="1025.2" shape-rendering="optimizeSpeed" width="8.5" height="8.5"/>
	<rect x="-1768.7" y="1025.2" shape-rendering="optimizeSpeed" width="8.5" height="8.5"/>
	<rect x="-1717.4" y="1025.2" shape-rendering="optimizeSpeed" width="8.5" height="8.5"/>
	<rect x="-1922.4" y="1033.7" shape-rendering="optimizeSpeed" width="8.5" height="8.5"/>
	<rect x="-1905.3" y="1033.7" shape-rendering="optimizeSpeed" width="8.5" height="8.5"/>
	<rect x="-1896.7" y="1033.7" shape-rendering="optimizeSpeed" width="8.5" height="8.5"/>
	<rect x="-1888.2" y="1033.7" shape-rendering="optimizeSpeed" width="8.5" height="8.5"/>
	<rect x="-1871.1" y="1033.7" shape-rendering="optimizeSpeed" width="8.5" height="8.5"/>
	<rect x="-1854.1" y="1033.7" shape-rendering="optimizeSpeed" width="8.5" height="8.5"/>
	<rect x="-1837" y="1033.7" shape-rendering="optimizeSpeed" width="8.5" height="8.5"/>
	<rect x="-1828.4" y="1033.7" shape-rendering="optimizeSpeed" width="8.5" height="8.5"/>
	<rect x="-1802.8" y="1033.7" shape-rendering="optimizeSpeed" width="8.5" height="8.5"/>
	<rect x="-1794.3" y="1033.7" shape-rendering="optimizeSpeed" width="8.5" height="8.5"/>
	<rect x="-1768.7" y="1033.7" shape-rendering="optimizeSpeed" width="8.5" height="8.5"/>
	<rect x="-1751.6" y="1033.7" shape-rendering="optimizeSpeed" width="8.5" height="8.5"/>
	<rect x="-1743.1" y="1033.7" shape-rendering="optimizeSpeed" width="8.5" height="8.5"/>
	<rect x="-1734.5" y="1033.7" shape-rendering="optimizeSpeed" width="8.5" height="8.5"/>
	<rect x="-1717.4" y="1033.7" shape-rendering="optimizeSpeed" width="8.5" height="8.5"/>
	<rect x="-1922.4" y="1042.3" shape-rendering="optimizeSpeed" width="8.5" height="8.5"/>
	<rect x="-1905.3" y="1042.3" shape-rendering="optimizeSpeed" width="8.5" height="8.5"/>
	<rect x="-1896.7" y="1042.3" shape-rendering="optimizeSpeed" width="8.5" height="8.5"/>
	<rect x="-1888.2" y="1042.3" shape-rendering="optimizeSpeed" width="8.5" height="8.5"/>
	<rect x="-1871.1" y="1042.3" shape-rendering="optimizeSpeed" width="8.5" height="8.5"/>
	<rect x="-1854.1" y="1042.3" shape-rendering="optimizeSpeed" width="8.5" height="8.5"/>
	<rect x="-1845.5" y="1042.3" shape-rendering="optimizeSpeed" width="8.5" height="8.5"/>
	<rect x="-1828.4" y="1042.3" shape-rendering="optimizeSpeed" width="8.5" height="8.5"/>
	<rect x="-1811.4" y="1042.3" shape-rendering="optimizeSpeed" width="8.5" height="8.5"/>
	<rect x="-1794.3" y="1042.3" shape-rendering="optimizeSpeed" width="8.5" height="8.5"/>
	<rect x="-1785.7" y="1042.3" shape-rendering="optimizeSpeed" width="8.5" height="8.5"/>
	<rect x="-1768.7" y="1042.3" shape-rendering="optimizeSpeed" width="8.5" height="8.5"/>
	<rect x="-1751.6" y="1042.3" shape-rendering="optimizeSpeed" width="8.5" height="8.5"/>
	<rect x="-1743.1" y="1042.3" shape-rendering="optimizeSpeed" width="8.5" height="8.5"/>
	<rect x="-1734.5" y="1042.3" shape-rendering="optimizeSpeed" width="8.5" height="8.5"/>
	<rect x="-1717.4" y="1042.3" shape-rendering="optimizeSpeed" width="8.5" height="8.5"/>
	<rect x="-1922.4" y="1050.8" shape-rendering="optimizeSpeed" width="8.5" height="8.5"/>
	<rect x="-1905.3" y="1050.8" shape-rendering="optimizeSpeed" width="8.5" height="8.5"/>
	<rect x="-1896.7" y="1050.8" shape-rendering="optimizeSpeed" width="8.5" height="8.5"/>
	<rect x="-1888.2" y="1050.8" shape-rendering="optimizeSpeed" width="8.5" height="8.5"/>
	<rect x="-1871.1" y="1050.8" shape-rendering="optimizeSpeed" width="8.5" height="8.5"/>
	<rect x="-1802.8" y="1050.8" shape-rendering="optimizeSpeed" width="8.5" height="8.5"/>
	<rect x="-1794.3" y="1050.8" shape-rendering="optimizeSpeed" width="8.5" height="8.5"/>
	<rect x="-1785.7" y="1050.8" shape-rendering="optimizeSpeed" width="8.5" height="8.5"/>
	<rect x="-1768.7" y="1050.8" shape-rendering="optimizeSpeed" width="8.5" height="8.5"/>
	<rect x="-1751.6" y="1050.8" shape-rendering="optimizeSpeed" width="8.5" height="8.5"/>
	<rect x="-1743.1" y="1050.8" shape-rendering="optimizeSpeed" width="8.5" height="8.5"/>
	<rect x="-1734.5" y="1050.8" shape-rendering="optimizeSpeed" width="8.5" height="8.5"/>
	<rect x="-1717.4" y="1050.8" shape-rendering="optimizeSpeed" width="8.5" height="8.5"/>
	<rect x="-1922.4" y="1059.3" shape-rendering="optimizeSpeed" width="8.5" height="8.5"/>
	<rect x="-1871.1" y="1059.3" shape-rendering="optimizeSpeed" width="8.5" height="8.5"/>
	<rect x="-1854.1" y="1059.3" shape-rendering="optimizeSpeed" width="8.5" height="8.5"/>
	<rect x="-1828.4" y="1059.3" shape-rendering="optimizeSpeed" width="8.5" height="8.5"/>
	<rect x="-1819.9" y="1059.3" shape-rendering="optimizeSpeed" width="8.5" height="8.5"/>
	<rect x="-1785.7" y="1059.3" shape-rendering="optimizeSpeed" width="8.5" height="8.5"/>
	<rect x="-1768.7" y="1059.3" shape-rendering="optimizeSpeed" width="8.5" height="8.5"/>
	<rect x="-1717.4" y="1059.3" shape-rendering="optimizeSpeed" width="8.5" height="8.5"/>
	<rect x="-1922.4" y="1067.9" shape-rendering="optimizeSpeed" width="8.5" height="8.5"/>
	<rect x="-1913.8" y="1067.9" shape-rendering="optimizeSpeed" width="8.5" height="8.5"/>
	<rect x="-1905.3" y="1067.9" shape-rendering="optimizeSpeed" width="8.5" height="8.5"/>
	<rect x="-1896.7" y="1067.9" shape-rendering="optimizeSpeed" width="8.5" height="8.5"/>
	<rect x="-1888.2" y="1067.9" shape-rendering="optimizeSpeed" width="8.5" height="8.5"/>
	<rect x="-1879.7" y="1067.9" shape-rendering="optimizeSpeed" width="8.5" height="8.5"/>
	<rect x="-1871.1" y="1067.9" shape-rendering="optimizeSpeed" width="8.5" height="8.5"/>
	<rect x="-1854.1" y="1067.9" shape-rendering="optimizeSpeed" width="8.5" height="8.5"/>
	<rect x="-1837" y="1067.9" shape-rendering="optimizeSpeed" width="8.5" height="8.5"/>
	<rect x="-1819.9" y="1067.9" shape-rendering="optimizeSpeed" width="8.5" height="8.5"/>
	<rect x="-1802.8" y="1067.9" shape-rendering="optimizeSpeed" width="8.5" height="8.5"/>
	<rect x="-1785.7" y="1067.9" shape-rendering="optimizeSpeed" width="8.5" height="8.5"/>
	<rect x="-1768.7" y="1067.9" shape-rendering="optimizeSpeed" width="8.5" height="8.5"/>
	<rect x="-1760.1" y="1067.9" shape-rendering="optimizeSpeed" width="8.5" height="8.5"/>
	<rect x="-1751.6" y="1067.9" shape-rendering="optimizeSpeed" width="8.5" height="8.5"/>
	<rect x="-1743.1" y="1067.9" shape-rendering="optimizeSpeed" width="8.5" height="8.5"/>
	<rect x="-1734.5" y="1067.9" shape-rendering="optimizeSpeed" width="8.5" height="8.5"/>
	<rect x="-1726" y="1067.9" shape-rendering="optimizeSpeed" width="8.5" height="8.5"/>
	<rect x="-1717.4" y="1067.9" shape-rendering="optimizeSpeed" width="8.5" height="8.5"/>
	<rect x="-1845.5" y="1076.4" shape-rendering="optimizeSpeed" width="8.5" height="8.5"/>
	<rect x="-1819.9" y="1076.4" shape-rendering="optimizeSpeed" width="8.5" height="8.5"/>
	<rect x="-1794.3" y="1076.4" shape-rendering="optimizeSpeed" width="8.5" height="8.5"/>
	<rect x="-1922.4" y="1084.9" shape-rendering="optimizeSpeed" width="8.5" height="8.5"/>
	<rect x="-1913.8" y="1084.9" shape-rendering="optimizeSpeed" width="8.5" height="8.5"/>
	<rect x="-1888.2" y="1084.9" shape-rendering="optimizeSpeed" width="8.5" height="8.5"/>
	<rect x="-1879.7" y="1084.9" shape-rendering="optimizeSpeed" width="8.5" height="8.5"/>
	<rect x="-1871.1" y="1084.9" shape-rendering="optimizeSpeed" width="8.5" height="8.5"/>
	<rect x="-1828.4" y="1084.9" shape-rendering="optimizeSpeed" width="8.5" height="8.5"/>
	<rect x="-1760.1" y="1084.9" shape-rendering="optimizeSpeed" width="8.5" height="8.5"/>
	<rect x="-1743.1" y="1084.9" shape-rendering="optimizeSpeed" width="8.5" height="8.5"/>
	<rect x="-1734.5" y="1084.9" shape-rendering="optimizeSpeed" width="8.5" height="8.5"/>
	<rect x="-1726" y="1084.9" shape-rendering="optimizeSpeed" width="8.5" height="8.5"/>
	<rect x="-1717.4" y="1084.9" shape-rendering="optimizeSpeed" width="8.5" height="8.5"/>
	<rect x="-1922.4" y="1093.5" shape-rendering="optimizeSpeed" width="8.5" height="8.5"/>
	<rect x="-1888.2" y="1093.5" shape-rendering="optimizeSpeed" width="8.5" height="8.5"/>
	<rect x="-1845.5" y="1093.5" shape-rendering="optimizeSpeed" width="8.5" height="8.5"/>
	<rect x="-1837" y="1093.5" shape-rendering="optimizeSpeed" width="8.5" height="8.5"/>
	<rect x="-1819.9" y="1093.5" shape-rendering="optimizeSpeed" width="8.5" height="8.5"/>
	<rect x="-1811.4" y="1093.5" shape-rendering="optimizeSpeed" width="8.5" height="8.5"/>
	<rect x="-1802.8" y="1093.5" shape-rendering="optimizeSpeed" width="8.5" height="8.5"/>
	<rect x="-1794.3" y="1093.5" shape-rendering="optimizeSpeed" width="8.5" height="8.5"/>
	<rect x="-1785.7" y="1093.5" shape-rendering="optimizeSpeed" width="8.5" height="8.5"/>
	<rect x="-1751.6" y="1093.5" shape-rendering="optimizeSpeed" width="8.5" height="8.5"/>
	<rect x="-1743.1" y="1093.5" shape-rendering="optimizeSpeed" width="8.5" height="8.5"/>
	<rect x="-1726" y="1093.5" shape-rendering="optimizeSpeed" width="8.5" height="8.5"/>
	<rect x="-1913.8" y="1102" shape-rendering="optimizeSpeed" width="8.5" height="8.5"/>
	<rect x="-1905.3" y="1102" shape-rendering="optimizeSpeed" width="8.5" height="8.5"/>
	<rect x="-1896.7" y="1102" shape-rendering="optimizeSpeed" width="8.5" height="8.5"/>
	<rect x="-1879.7" y="1102" shape-rendering="optimizeSpeed" width="8.5" height="8.5"/>
	<rect x="-1871.1" y="1102" shape-rendering="optimizeSpeed" width="8.5" height="8.5"/>
	<rect x="-1862.6" y="1102" shape-rendering="optimizeSpeed" width="8.5" height="8.5"/>
	<rect x="-1854.1" y="1102" shape-rendering="optimizeSpeed" width="8.5" height="8.5"/>
	<rect x="-1828.4" y="1102" shape-rendering="optimizeSpeed" width="8.5" height="8.5"/>
	<rect x="-1819.9" y="1102" shape-rendering="optimizeSpeed" width="8.5" height="8.5"/>
	<rect x="-1811.4" y="1102" shape-rendering="optimizeSpeed" width="8.5" height="8.5"/>
	<rect x="-1794.3" y="1102" shape-rendering="optimizeSpeed" width="8.5" height="8.5"/>
	<rect x="-1777.2" y="1102" shape-rendering="optimizeSpeed" width="8.5" height="8.5"/>
	<rect x="-1743.1" y="1102" shape-rendering="optimizeSpeed" width="8.5" height="8.5"/>
	<rect x="-1734.5" y="1102" shape-rendering="optimizeSpeed" width="8.5" height="8.5"/>
	<rect x="-1922.4" y="1110.6" shape-rendering="optimizeSpeed" width="8.5" height="8.5"/>
	<rect x="-1913.8" y="1110.6" shape-rendering="optimizeSpeed" width="8.5" height="8.5"/>
	<rect x="-1905.3" y="1110.6" shape-rendering="optimizeSpeed" width="8.5" height="8.5"/>
	<rect x="-1888.2" y="1110.6" shape-rendering="optimizeSpeed" width="8.5" height="8.5"/>
	<rect x="-1837" y="1110.6" shape-rendering="optimizeSpeed" width="8.5" height="8.5"/>
	<rect x="-1828.4" y="1110.6" shape-rendering="optimizeSpeed" width="8.5" height="8.5"/>
	<rect x="-1802.8" y="1110.6" shape-rendering="optimizeSpeed" width="8.5" height="8.5"/>
	<rect x="-1760.1" y="1110.6" shape-rendering="optimizeSpeed" width="8.5" height="8.5"/>
	<rect x="-1734.5" y="1110.6" shape-rendering="optimizeSpeed" width="8.5" height="8.5"/>
	<rect x="-1726" y="1110.6" shape-rendering="optimizeSpeed" width="8.5" height="8.5"/>
	<rect x="-1922.4" y="1119.1" shape-rendering="optimizeSpeed" width="8.5" height="8.5"/>
	<rect x="-1905.3" y="1119.1" shape-rendering="optimizeSpeed" width="8.5" height="8.5"/>
	<rect x="-1896.7" y="1119.1" shape-rendering="optimizeSpeed" width="8.5" height="8.5"/>
	<rect x="-1888.2" y="1119.1" shape-rendering="optimizeSpeed" width="8.5" height="8.5"/>
	<rect x="-1871.1" y="1119.1" shape-rendering="optimizeSpeed" width="8.5" height="8.5"/>
	<rect x="-1862.6" y="1119.1" shape-rendering="optimizeSpeed" width="8.5" height="8.5"/>
	<rect x="-1837" y="1119.1" shape-rendering="optimizeSpeed" width="8.5" height="8.5"/>
	<rect x="-1819.9" y="1119.1" shape-rendering="optimizeSpeed" width="8.5" height="8.5"/>
	<rect x="-1777.2" y="1119.1" shape-rendering="optimizeSpeed" width="8.5" height="8.5"/>
	<rect x="-1768.7" y="1119.1" shape-rendering="optimizeSpeed" width="8.5" height="8.5"/>
	<rect x="-1760.1" y="1119.1" shape-rendering="optimizeSpeed" width="8.5" height="8.5"/>
	<rect x="-1743.1" y="1119.1" shape-rendering="optimizeSpeed" width="8.5" height="8.5"/>
	<rect x="-1734.5" y="1119.1" shape-rendering="optimizeSpeed" width="8.5" height="8.5"/>
	<rect x="-1726" y="1119.1" shape-rendering="optimizeSpeed" width="8.5" height="8.5"/>
	<rect x="-1717.4" y="1119.1" shape-rendering="optimizeSpeed" width="8.5" height="8.5"/>
	<rect x="-1922.4" y="1127.6" shape-rendering="optimizeSpeed" width="8.5" height="8.5"/>
	<rect x="-1879.7" y="1127.6" shape-rendering="optimizeSpeed" width="8.5" height="8.5"/>
	<rect x="-1862.6" y="1127.6" shape-rendering="optimizeSpeed" width="8.5" height="8.5"/>
	<rect x="-1854.1" y="1127.6" shape-rendering="optimizeSpeed" width="8.5" height="8.5"/>
	<rect x="-1802.8" y="1127.6" shape-rendering="optimizeSpeed" width="8.5" height="8.5"/>
	<rect x="-1794.3" y="1127.6" shape-rendering="optimizeSpeed" width="8.5" height="8.5"/>
	<rect x="-1785.7" y="1127.6" shape-rendering="optimizeSpeed" width="8.5" height="8.5"/>
	<rect x="-1777.2" y="1127.6" shape-rendering="optimizeSpeed" width="8.5" height="8.5"/>
	<rect x="-1751.6" y="1127.6" shape-rendering="optimizeSpeed" width="8.5" height="8.5"/>
	<rect x="-1726" y="1127.6" shape-rendering="optimizeSpeed" width="8.5" height="8.5"/>
	<rect x="-1888.2" y="1136.2" shape-rendering="optimizeSpeed" width="8.5" height="8.5"/>
	<rect x="-1871.1" y="1136.2" shape-rendering="optimizeSpeed" width="8.5" height="8.5"/>
	<rect x="-1862.6" y="1136.2" shape-rendering="optimizeSpeed" width="8.5" height="8.5"/>
	<rect x="-1854.1" y="1136.2" shape-rendering="optimizeSpeed" width="8.5" height="8.5"/>
	<rect x="-1845.5" y="1136.2" shape-rendering="optimizeSpeed" width="8.5" height="8.5"/>
	<rect x="-1811.4" y="1136.2" shape-rendering="optimizeSpeed" width="8.5" height="8.5"/>
	<rect x="-1802.8" y="1136.2" shape-rendering="optimizeSpeed" width="8.5" height="8.5"/>
	<rect x="-1794.3" y="1136.2" shape-rendering="optimizeSpeed" width="8.5" height="8.5"/>
	<rect x="-1760.1" y="1136.2" shape-rendering="optimizeSpeed" width="8.5" height="8.5"/>
	<rect x="-1751.6" y="1136.2" shape-rendering="optimizeSpeed" width="8.5" height="8.5"/>
	<rect x="-1743.1" y="1136.2" shape-rendering="optimizeSpeed" width="8.5" height="8.5"/>
	<rect x="-1734.5" y="1136.2" shape-rendering="optimizeSpeed" width="8.5" height="8.5"/>
	<rect x="-1905.3" y="1144.7" shape-rendering="optimizeSpeed" width="8.5" height="8.5"/>
	<rect x="-1896.7" y="1144.7" shape-rendering="optimizeSpeed" width="8.5" height="8.5"/>
	<rect x="-1888.2" y="1144.7" shape-rendering="optimizeSpeed" width="8.5" height="8.5"/>
	<rect x="-1862.6" y="1144.7" shape-rendering="optimizeSpeed" width="8.5" height="8.5"/>
	<rect x="-1845.5" y="1144.7" shape-rendering="optimizeSpeed" width="8.5" height="8.5"/>
	<rect x="-1819.9" y="1144.7" shape-rendering="optimizeSpeed" width="8.5" height="8.5"/>
	<rect x="-1802.8" y="1144.7" shape-rendering="optimizeSpeed" width="8.5" height="8.5"/>
	<rect x="-1785.7" y="1144.7" shape-rendering="optimizeSpeed" width="8.5" height="8.5"/>
	<rect x="-1777.2" y="1144.7" shape-rendering="optimizeSpeed" width="8.5" height="8.5"/>
	<rect x="-1768.7" y="1144.7" shape-rendering="optimizeSpeed" width="8.5" height="8.5"/>
	<rect x="-1760.1" y="1144.7" shape-rendering="optimizeSpeed" width="8.5" height="8.5"/>
	<rect x="-1751.6" y="1144.7" shape-rendering="optimizeSpeed" width="8.5" height="8.5"/>
	<rect x="-1734.5" y="1144.7" shape-rendering="optimizeSpeed" width="8.5" height="8.5"/>
	<rect x="-1726" y="1144.7" shape-rendering="optimizeSpeed" width="8.5" height="8.5"/>
	<rect x="-1922.4" y="1153.3" shape-rendering="optimizeSpeed" width="8.5" height="8.5"/>
	<rect x="-1913.8" y="1153.3" shape-rendering="optimizeSpeed" width="8.5" height="8.5"/>
	<rect x="-1905.3" y="1153.3" shape-rendering="optimizeSpeed" width="8.5" height="8.5"/>
	<rect x="-1871.1" y="1153.3" shape-rendering="optimizeSpeed" width="8.5" height="8.5"/>
	<rect x="-1862.6" y="1153.3" shape-rendering="optimizeSpeed" width="8.5" height="8.5"/>
	<rect x="-1854.1" y="1153.3" shape-rendering="optimizeSpeed" width="8.5" height="8.5"/>
	<rect x="-1845.5" y="1153.3" shape-rendering="optimizeSpeed" width="8.5" height="8.5"/>
	<rect x="-1828.4" y="1153.3" shape-rendering="optimizeSpeed" width="8.5" height="8.5"/>
	<rect x="-1785.7" y="1153.3" shape-rendering="optimizeSpeed" width="8.5" height="8.5"/>
	<rect x="-1777.2" y="1153.3" shape-rendering="optimizeSpeed" width="8.5" height="8.5"/>
	<rect x="-1768.7" y="1153.3" shape-rendering="optimizeSpeed" width="8.5" height="8.5"/>
	<rect x="-1760.1" y="1153.3" shape-rendering="optimizeSpeed" width="8.5" height="8.5"/>
	<rect x="-1751.6" y="1153.3" shape-rendering="optimizeSpeed" width="8.5" height="8.5"/>
	<rect x="-1743.1" y="1153.3" shape-rendering="optimizeSpeed" width="8.5" height="8.5"/>
	<rect x="-1734.5" y="1153.3" shape-rendering="optimizeSpeed" width="8.5" height="8.5"/>
	<rect x="-1854.1" y="1161.8" shape-rendering="optimizeSpeed" width="8.5" height="8.5"/>
	<rect x="-1845.5" y="1161.8" shape-rendering="optimizeSpeed" width="8.5" height="8.5"/>
	<rect x="-1837" y="1161.8" shape-rendering="optimizeSpeed" width="8.5" height="8.5"/>
	<rect x="-1819.9" y="1161.8" shape-rendering="optimizeSpeed" width="8.5" height="8.5"/>
	<rect x="-1802.8" y="1161.8" shape-rendering="optimizeSpeed" width="8.5" height="8.5"/>
	<rect x="-1794.3" y="1161.8" shape-rendering="optimizeSpeed" width="8.5" height="8.5"/>
	<rect x="-1785.7" y="1161.8" shape-rendering="optimizeSpeed" width="8.5" height="8.5"/>
	<rect x="-1751.6" y="1161.8" shape-rendering="optimizeSpeed" width="8.5" height="8.5"/>
	<rect x="-1922.4" y="1170.3" shape-rendering="optimizeSpeed" width="8.5" height="8.5"/>
	<rect x="-1913.8" y="1170.3" shape-rendering="optimizeSpeed" width="8.5" height="8.5"/>
	<rect x="-1905.3" y="1170.3" shape-rendering="optimizeSpeed" width="8.5" height="8.5"/>
	<rect x="-1896.7" y="1170.3" shape-rendering="optimizeSpeed" width="8.5" height="8.5"/>
	<rect x="-1888.2" y="1170.3" shape-rendering="optimizeSpeed" width="8.5" height="8.5"/>
	<rect x="-1879.7" y="1170.3" shape-rendering="optimizeSpeed" width="8.5" height="8.5"/>
	<rect x="-1871.1" y="1170.3" shape-rendering="optimizeSpeed" width="8.5" height="8.5"/>
	<rect x="-1828.4" y="1170.3" shape-rendering="optimizeSpeed" width="8.5" height="8.5"/>
	<rect x="-1819.9" y="1170.3" shape-rendering="optimizeSpeed" width="8.5" height="8.5"/>
	<rect x="-1802.8" y="1170.3" shape-rendering="optimizeSpeed" width="8.5" height="8.5"/>
	<rect x="-1785.7" y="1170.3" shape-rendering="optimizeSpeed" width="8.5" height="8.5"/>
	<rect x="-1768.7" y="1170.3" shape-rendering="optimizeSpeed" width="8.5" height="8.5"/>
	<rect x="-1751.6" y="1170.3" shape-rendering="optimizeSpeed" width="8.5" height="8.5"/>
	<rect x="-1922.4" y="1178.9" shape-rendering="optimizeSpeed" width="8.5" height="8.5"/>
	<rect x="-1871.1" y="1178.9" shape-rendering="optimizeSpeed" width="8.5" height="8.5"/>
	<rect x="-1854.1" y="1178.9" shape-rendering="optimizeSpeed" width="8.5" height="8.5"/>
	<rect x="-1845.5" y="1178.9" shape-rendering="optimizeSpeed" width="8.5" height="8.5"/>
	<rect x="-1837" y="1178.9" shape-rendering="optimizeSpeed" width="8.5" height="8.5"/>
	<rect x="-1828.4" y="1178.9" shape-rendering="optimizeSpeed" width="8.5" height="8.5"/>
	<rect x="-1802.8" y="1178.9" shape-rendering="optimizeSpeed" width="8.5" height="8.5"/>
	<rect x="-1785.7" y="1178.9" shape-rendering="optimizeSpeed" width="8.5" height="8.5"/>
	<rect x="-1751.6" y="1178.9" shape-rendering="optimizeSpeed" width="8.5" height="8.5"/>
	<rect x="-1743.1" y="1178.9" shape-rendering="optimizeSpeed" width="8.5" height="8.5"/>
	<rect x="-1734.5" y="1178.9" shape-rendering="optimizeSpeed" width="8.5" height="8.5"/>
	<rect x="-1717.4" y="1178.9" shape-rendering="optimizeSpeed" width="8.5" height="8.5"/>
	<rect x="-1922.4" y="1187.4" shape-rendering="optimizeSpeed" width="8.5" height="8.5"/>
	<rect x="-1905.3" y="1187.4" shape-rendering="optimizeSpeed" width="8.5" height="8.5"/>
	<rect x="-1896.7" y="1187.4" shape-rendering="optimizeSpeed" width="8.5" height="8.5"/>
	<rect x="-1888.2" y="1187.4" shape-rendering="optimizeSpeed" width="8.5" height="8.5"/>
	<rect x="-1871.1" y="1187.4" shape-rendering="optimizeSpeed" width="8.5" height="8.5"/>
	<rect x="-1854.1" y="1187.4" shape-rendering="optimizeSpeed" width="8.5" height="8.5"/>
	<rect x="-1819.9" y="1187.4" shape-rendering="optimizeSpeed" width="8.5" height="8.5"/>
	<rect x="-1802.8" y="1187.4" shape-rendering="optimizeSpeed" width="8.5" height="8.5"/>
	<rect x="-1785.7" y="1187.4" shape-rendering="optimizeSpeed" width="8.5" height="8.5"/>
	<rect x="-1777.2" y="1187.4" shape-rendering="optimizeSpeed" width="8.5" height="8.5"/>
	<rect x="-1768.7" y="1187.4" shape-rendering="optimizeSpeed" width="8.5" height="8.5"/>
	<rect x="-1760.1" y="1187.4" shape-rendering="optimizeSpeed" width="8.5" height="8.5"/>
	<rect x="-1751.6" y="1187.4" shape-rendering="optimizeSpeed" width="8.5" height="8.5"/>
	<rect x="-1743.1" y="1187.4" shape-rendering="optimizeSpeed" width="8.5" height="8.5"/>
	<rect x="-1734.5" y="1187.4" shape-rendering="optimizeSpeed" width="8.5" height="8.5"/>
	<rect x="-1726" y="1187.4" shape-rendering="optimizeSpeed" width="8.5" height="8.5"/>
	<rect x="-1717.4" y="1187.4" shape-rendering="optimizeSpeed" width="8.5" height="8.5"/>
	<rect x="-1922.4" y="1195.9" shape-rendering="optimizeSpeed" width="8.5" height="8.5"/>
	<rect x="-1905.3" y="1195.9" shape-rendering="optimizeSpeed" width="8.5" height="8.5"/>
	<rect x="-1896.7" y="1195.9" shape-rendering="optimizeSpeed" width="8.5" height="8.5"/>
	<rect x="-1888.2" y="1195.9" shape-rendering="optimizeSpeed" width="8.5" height="8.5"/>
	<rect x="-1871.1" y="1195.9" shape-rendering="optimizeSpeed" width="8.5" height="8.5"/>
	<rect x="-1845.5" y="1195.9" shape-rendering="optimizeSpeed" width="8.5" height="8.5"/>
	<rect x="-1802.8" y="1195.9" shape-rendering="optimizeSpeed" width="8.5" height="8.5"/>
	<rect x="-1794.3" y="1195.9" shape-rendering="optimizeSpeed" width="8.5" height="8.5"/>
	<rect x="-1777.2" y="1195.9" shape-rendering="optimizeSpeed" width="8.5" height="8.5"/>
	<rect x="-1768.7" y="1195.9" shape-rendering="optimizeSpeed" width="8.5" height="8.5"/>
	<rect x="-1760.1" y="1195.9" shape-rendering="optimizeSpeed" width="8.5" height="8.5"/>
	<rect x="-1734.5" y="1195.9" shape-rendering="optimizeSpeed" width="8.5" height="8.5"/>
	<rect x="-1726" y="1195.9" shape-rendering="optimizeSpeed" width="8.5" height="8.5"/>
	<rect x="-1717.4" y="1195.9" shape-rendering="optimizeSpeed" width="8.5" height="8.5"/>
	<rect x="-1922.4" y="1204.5" shape-rendering="optimizeSpeed" width="8.5" height="8.5"/>
	<rect x="-1905.3" y="1204.5" shape-rendering="optimizeSpeed" width="8.5" height="8.5"/>
	<rect x="-1896.7" y="1204.5" shape-rendering="optimizeSpeed" width="8.5" height="8.5"/>
	<rect x="-1888.2" y="1204.5" shape-rendering="optimizeSpeed" width="8.5" height="8.5"/>
	<rect x="-1871.1" y="1204.5" shape-rendering="optimizeSpeed" width="8.5" height="8.5"/>
	<rect x="-1837" y="1204.5" shape-rendering="optimizeSpeed" width="8.5" height="8.5"/>
	<rect x="-1811.4" y="1204.5" shape-rendering="optimizeSpeed" width="8.5" height="8.5"/>
	<rect x="-1802.8" y="1204.5" shape-rendering="optimizeSpeed" width="8.5" height="8.5"/>
	<rect x="-1785.7" y="1204.5" shape-rendering="optimizeSpeed" width="8.5" height="8.5"/>
	<rect x="-1777.2" y="1204.5" shape-rendering="optimizeSpeed" width="8.5" height="8.5"/>
	<rect x="-1768.7" y="1204.5" shape-rendering="optimizeSpeed" width="8.5" height="8.5"/>
	<rect x="-1743.1" y="1204.5" shape-rendering="optimizeSpeed" width="8.5" height="8.5"/>
	<rect x="-1726" y="1204.5" shape-rendering="optimizeSpeed" width="8.5" height="8.5"/>
	<rect x="-1922.4" y="1213" shape-rendering="optimizeSpeed" width="8.5" height="8.5"/>
	<rect x="-1871.1" y="1213" shape-rendering="optimizeSpeed" width="8.5" height="8.5"/>
	<rect x="-1854.1" y="1213" shape-rendering="optimizeSpeed" width="8.5" height="8.5"/>
	<rect x="-1819.9" y="1213" shape-rendering="optimizeSpeed" width="8.5" height="8.5"/>
	<rect x="-1802.8" y="1213" shape-rendering="optimizeSpeed" width="8.5" height="8.5"/>
	<rect x="-1794.3" y="1213" shape-rendering="optimizeSpeed" width="8.5" height="8.5"/>
	<rect x="-1777.2" y="1213" shape-rendering="optimizeSpeed" width="8.5" height="8.5"/>
	<rect x="-1768.7" y="1213" shape-rendering="optimizeSpeed" width="8.5" height="8.5"/>
	<rect x="-1760.1" y="1213" shape-rendering="optimizeSpeed" width="8.5" height="8.5"/>
	<rect x="-1751.6" y="1213" shape-rendering="optimizeSpeed" width="8.5" height="8.5"/>
	<rect x="-1743.1" y="1213" shape-rendering="optimizeSpeed" width="8.5" height="8.5"/>
	<rect x="-1734.5" y="1213" shape-rendering="optimizeSpeed" width="8.5" height="8.5"/>
	<rect x="-1726" y="1213" shape-rendering="optimizeSpeed" width="8.5" height="8.5"/>
	<rect x="-1922.4" y="1221.6" shape-rendering="optimizeSpeed" width="8.5" height="8.5"/>
	<rect x="-1913.8" y="1221.6" shape-rendering="optimizeSpeed" width="8.5" height="8.5"/>
	<rect x="-1905.3" y="1221.6" shape-rendering="optimizeSpeed" width="8.5" height="8.5"/>
	<rect x="-1896.7" y="1221.6" shape-rendering="optimizeSpeed" width="8.5" height="8.5"/>
	<rect x="-1888.2" y="1221.6" shape-rendering="optimizeSpeed" width="8.5" height="8.5"/>
	<rect x="-1879.7" y="1221.6" shape-rendering="optimizeSpeed" width="8.5" height="8.5"/>
	<rect x="-1871.1" y="1221.6" shape-rendering="optimizeSpeed" width="8.5" height="8.5"/>
	<rect x="-1854.1" y="1221.6" shape-rendering="optimizeSpeed" width="8.5" height="8.5"/>
	<rect x="-1837" y="1221.6" shape-rendering="optimizeSpeed" width="8.5" height="8.5"/>
	<rect x="-1828.4" y="1221.6" shape-rendering="optimizeSpeed" width="8.5" height="8.5"/>
	<rect x="-1819.9" y="1221.6" shape-rendering="optimizeSpeed" width="8.5" height="8.5"/>
	<rect x="-1811.4" y="1221.6" shape-rendering="optimizeSpeed" width="8.5" height="8.5"/>
	<rect x="-1802.8" y="1221.6" shape-rendering="optimizeSpeed" width="8.5" height="8.5"/>
	<rect x="-1794.3" y="1221.6" shape-rendering="optimizeSpeed" width="8.5" height="8.5"/>
	<rect x="-1777.2" y="1221.6" shape-rendering="optimizeSpeed" width="8.5" height="8.5"/>
	<rect x="-1768.7" y="1221.6" shape-rendering="optimizeSpeed" width="8.5" height="8.5"/>
	<rect x="-1734.5" y="1221.6" shape-rendering="optimizeSpeed" width="8.5" height="8.5"/>
	<rect x="-1726" y="1221.6" shape-rendering="optimizeSpeed" width="8.5" height="8.5"/>
	<rect x="-1717.4" y="1221.6" shape-rendering="optimizeSpeed" width="8.5" height="8.5"/>
</g>
<g id="Layer_2">
	<text transform="matrix(1 0 0 1 -1615.5356 1169.6113)" font-family="'HansKendrick-Regular'" font-size="160">daviesgeek.com</text>
</g>
</svg>
